# xmcd
#
# Track frame offsets: 
#        150
#        18337
#        33230
#        56770
#        68850
#        90505
#        108205
#        123340
#        139290
#        156957
#        177850
#
# Disc length: 2686 seconds
#
# Revision: 3
# Processed by: cddbd v1.5.1PL0 Copyright (c) Steve Scherf et al.
# Submitted via: ExactAudioCopy v0.95a4
#
DISCID=8d0a7c0b
DTITLE=Chewy - Somanydynamos
DYEAR=2001
DGENRE=Rock
TTITLE0=Black Belt
TTITLE1=Bushes
TTITLE2=December
TTITLE3=Call Of The Wild
TTITLE4=Ain't No Light
TTITLE5=Toronado
TTITLE6=Virgin Forest
TTITLE7=King Of The Hill
TTITLE8=Winnetoo
TTITLE9=Dreamland
TTITLE10=Where'd You Go
EXTD=
EXTT0=
EXTT1=
EXTT2=
EXTT3=
EXTT4=
EXTT5=
EXTT6=
EXTT7=
EXTT8=
EXTT9=
EXTT10=
PLAYORDER=
